<svg width="20" height="21" viewBox="0 0 20 21" fill="none" xmlns="http://www.w3.org/2000/svg">
<g clip-path="url(#clip0_2631_6965)">
<path d="M20 10.5C20 4.97715 15.5228 0.5 10 0.5C4.47715 0.5 0 4.97715 0 10.5C0 15.4913 3.65686 19.6283 8.4375 20.3785V13.3906H5.89844V10.5H8.4375V8.29688C8.4375 5.79062 9.93044 4.40625 12.2146 4.40625C13.3087 4.40625 14.4531 4.60156 14.4531 4.60156V7.0625H13.1921C11.9499 7.0625 11.5625 7.83333 11.5625 8.62417V10.5H14.3359L13.8926 13.3906H11.5625V20.3785C16.3431 19.6283 20 15.4913 20 10.5Z" fill="#1877F2"/>
<path d="M13.8926 13.3906L14.3359 10.5H11.5625V8.62417C11.5625 7.83333 11.9499 7.0625 13.1921 7.0625H14.4531V4.60156C14.4531 4.60156 13.3087 4.40625 12.2146 4.40625C9.93044 4.40625 8.4375 5.79062 8.4375 8.29688V10.5H5.89844V13.3906H8.4375V20.3785C9.47287 20.5405 10.5271 20.5405 11.5625 20.3785V13.3906H13.8926Z" fill="white"/>
</g>
<defs>
<clipPath id="clip0_2631_6965">
<rect width="20" height="20" fill="white" transform="translate(0 0.5)"/>
</clipPath>
</defs>
</svg>
