<svg width="32" height="32" viewBox="0 0 32 32" fill="none" xmlns="http://www.w3.org/2000/svg">
<path d="M16 3C8.826 3 3 8.826 3 16C3 23.174 8.826 29 16 29C23.174 29 29 23.174 29 16C29 8.826 23.174 3 16 3ZM16 4C22.633 4 28 9.367 28 16C28 22.633 22.633 28 16 28C9.367 28 4 22.633 4 16C4 9.367 9.367 4 16 4ZM16 6C10.49 6 6 10.49 6 16C6 21.51 10.49 26 16 26C21.51 26 26 21.51 26 16C26 10.49 21.51 6 16 6ZM16 8C20.43 8 24 11.57 24 16C24 20.43 20.43 24 16 24C11.57 24 8 20.43 8 16C8 11.57 11.57 8 16 8ZM16 10C12.698 10 10 12.698 10 16C10 19.302 12.698 22 16 22C19.302 22 22 19.302 22 16C22 12.698 19.302 10 16 10ZM16 12C18.22 12 20 13.78 20 16C20 18.22 18.22 20 16 20C13.78 20 12 18.22 12 16C12 13.78 13.78 12 16 12ZM16 14C15.7337 13.994 15.4688 14.0412 15.221 14.139C14.9731 14.2367 14.7473 14.383 14.5568 14.5692C14.3663 14.7554 14.2149 14.9778 14.1115 15.2233C14.0081 15.4689 13.9549 15.7326 13.9548 15.999C13.9547 16.2654 14.0079 16.5291 14.1111 16.7747C14.2144 17.0203 14.3657 17.2428 14.5561 17.4291C14.7465 17.6154 14.9723 17.7618 15.22 17.8596C15.4678 17.9575 15.7327 18.0049 15.999 17.999C16.5216 17.9874 17.0188 17.7718 17.3844 17.3982C17.7499 17.0245 17.9547 16.5227 17.9548 16C17.9549 15.4773 17.7504 14.9753 17.3851 14.6015C17.0197 14.2277 16.5226 14.0118 16 14Z" fill="#3E79F7"/>
</svg>
