<svg width="24" height="25" viewBox="0 0 24 25" fill="none" xmlns="http://www.w3.org/2000/svg">
<g clip-path="url(#clip0_2631_6941)">
<path d="M12.0183 24.5C18.6558 24.5 24.0365 19.1274 24.0365 12.5C24.0365 5.87258 18.6558 0.5 12.0183 0.5C5.38077 0.5 0 5.87258 0 12.5C0 19.1274 5.38077 24.5 12.0183 24.5Z" fill="#E0E0E0"/>
<path d="M12.0192 24.1353C18.5558 24.1353 23.8548 18.8443 23.8548 12.3176C23.8548 5.79093 18.5558 0.5 12.0192 0.5C5.48259 0.5 0.183594 5.79093 0.183594 12.3176C0.183594 18.8443 5.48259 24.1353 12.0192 24.1353Z" fill="white"/>
<mask id="mask0_2631_6941" style="mask-type:luminance" maskUnits="userSpaceOnUse" x="4" y="4" width="16" height="17">
<path d="M19.6892 10.9316H12.2006V14.0319H16.5111C16.1093 16.0015 14.4289 17.1322 12.2006 17.1322C9.57046 17.1322 7.45173 15.0167 7.45173 12.3905C7.45173 9.76439 9.57046 7.64889 12.2006 7.64889C13.333 7.64889 14.3558 8.05011 15.1595 8.70665L17.4974 6.37229C16.0727 5.13217 14.2463 4.36621 12.2006 4.36621C7.74397 4.36621 4.16406 7.94068 4.16406 12.3905C4.16406 16.8404 7.74397 20.4148 12.2006 20.4148C16.2189 20.4148 19.8718 17.4969 19.8718 12.3905C19.8718 11.9164 19.7988 11.4057 19.6892 10.9316Z" fill="white"/>
</mask>
<g mask="url(#mask0_2631_6941)">
<path d="M3.43359 17.1322V7.64893L9.64364 12.3906L3.43359 17.1322Z" fill="#FBBC05"/>
</g>
<mask id="mask1_2631_6941" style="mask-type:luminance" maskUnits="userSpaceOnUse" x="4" y="4" width="16" height="17">
<path d="M19.6892 10.9316H12.2006V14.0319H16.5111C16.1093 16.0015 14.4289 17.1322 12.2006 17.1322C9.57046 17.1322 7.45173 15.0167 7.45173 12.3905C7.45173 9.76439 9.57046 7.64889 12.2006 7.64889C13.333 7.64889 14.3558 8.05011 15.1595 8.70665L17.4974 6.37229C16.0727 5.13217 14.2463 4.36621 12.2006 4.36621C7.74397 4.36621 4.16406 7.94068 4.16406 12.3905C4.16406 16.8404 7.74397 20.4148 12.2006 20.4148C16.2189 20.4148 19.8718 17.4969 19.8718 12.3905C19.8718 11.9164 19.7988 11.4057 19.6892 10.9316Z" fill="white"/>
</mask>
<g mask="url(#mask1_2631_6941)">
<path d="M3.43359 7.64888L9.64364 12.3905L12.2007 10.1656L20.9678 8.7431V3.63672H3.43359V7.64888Z" fill="#EA4335"/>
</g>
<mask id="mask2_2631_6941" style="mask-type:luminance" maskUnits="userSpaceOnUse" x="4" y="4" width="16" height="17">
<path d="M19.6892 10.9316H12.2006V14.0319H16.5111C16.1093 16.0015 14.4289 17.1322 12.2006 17.1322C9.57046 17.1322 7.45173 15.0167 7.45173 12.3905C7.45173 9.76439 9.57046 7.64889 12.2006 7.64889C13.333 7.64889 14.3558 8.05011 15.1595 8.70665L17.4974 6.37229C16.0727 5.13217 14.2463 4.36621 12.2006 4.36621C7.74397 4.36621 4.16406 7.94068 4.16406 12.3905C4.16406 16.8404 7.74397 20.4148 12.2006 20.4148C16.2189 20.4148 19.8718 17.4969 19.8718 12.3905C19.8718 11.9164 19.7988 11.4057 19.6892 10.9316Z" fill="white"/>
</mask>
<g mask="url(#mask2_2631_6941)">
<path d="M3.43359 17.1322L14.3925 8.7431L17.2783 9.10784L20.9678 3.63672V21.1443H3.43359V17.1322Z" fill="#34A853"/>
</g>
<mask id="mask3_2631_6941" style="mask-type:luminance" maskUnits="userSpaceOnUse" x="4" y="4" width="16" height="17">
<path d="M19.6892 10.9316H12.2006V14.0319H16.5111C16.1093 16.0015 14.4289 17.1322 12.2006 17.1322C9.57046 17.1322 7.45173 15.0167 7.45173 12.3905C7.45173 9.76439 9.57046 7.64889 12.2006 7.64889C13.333 7.64889 14.3558 8.05011 15.1595 8.70665L17.4974 6.37229C16.0727 5.13217 14.2463 4.36621 12.2006 4.36621C7.74397 4.36621 4.16406 7.94068 4.16406 12.3905C4.16406 16.8404 7.74397 20.4148 12.2006 20.4148C16.2189 20.4148 19.8718 17.4969 19.8718 12.3905C19.8718 11.9164 19.7988 11.4057 19.6892 10.9316Z" fill="white"/>
</mask>
<g mask="url(#mask3_2631_6941)">
<path d="M20.969 21.1444L9.64478 12.3906L8.18359 11.2963L20.969 7.64893V21.1444Z" fill="#4285F4"/>
</g>
</g>
<defs>
<clipPath id="clip0_2631_6941">
<rect width="24" height="24" fill="white" transform="translate(0 0.5)"/>
</clipPath>
</defs>
</svg>
